HIERARCHY
ROOT Spine1
{
	OFFSET 0.000000 0.000000 0.000000
	CHANNELS 6 Xposition Yposition Zposition Yrotation Zrotation Xrotation
	JOINT ShoulderCenter
	{
		OFFSET -0.618215 18.271749 -0.044608
		CHANNELS 3 Yrotation Zrotation Xrotation
		JOINT Head
		{
			OFFSET 0.780213 17.924028 -2.960563
			CHANNELS 3 Yrotation Zrotation Xrotation
			End Site
			{
				OFFSET 0.000000 0.000000 0.000000
			}
		}
	}
	JOINT ShoulderCenterRight
	{
		OFFSET -0.618215 18.271749 -0.044608
		CHANNELS 3 Yrotation Zrotation Xrotation
		JOINT RightShoulder
		{
			OFFSET 18.957802 -12.571615 1.742935
			CHANNELS 3 Yrotation Zrotation Xrotation
			JOINT RightElbow
			{
				OFFSET 9.592249 -26.713556 3.267360
				CHANNELS 3 Yrotation Zrotation Xrotation
				JOINT RightWrist
				{
					OFFSET 6.377637 -22.349566 -3.931570
					CHANNELS 3 Yrotation Zrotation Xrotation
					JOINT RightHand
					{
						OFFSET 0.366336 -4.997246 -1.670384
						CHANNELS 3 Yrotation Zrotation Xrotation
						End Site
						{
							OFFSET 0.000000 0.000000 0.000000
						}
					}
				}
			}
		}
	}
	JOINT ShoulderCenterLeft
	{
		OFFSET -0.618215 18.271749 -0.044608
		CHANNELS 3 Yrotation Zrotation Xrotation
		JOINT LeftShoulder
		{
			OFFSET -17.904209 -13.642335 -3.446245
			CHANNELS 3 Yrotation Zrotation Xrotation
			JOINT LeftElbow
			{
				OFFSET -8.364469 -24.754250 -1.719737
				CHANNELS 3 Yrotation Zrotation Xrotation
				JOINT LeftWrist
				{
					OFFSET -1.382601 -22.248871 -8.410597
					CHANNELS 3 Yrotation Zrotation Xrotation
					JOINT LeftHand
					{
						OFFSET 0.987452 -3.613607 0.213432
						CHANNELS 3 Yrotation Zrotation Xrotation
						End Site
						{
							OFFSET 0.000000 0.000000 0.000000
						}
					}
				}
			}
		}
	}
	JOINT Spine
	{
		OFFSET 0.618214 -18.271749 0.044608
		CHANNELS 3 Yrotation Zrotation Xrotation
		JOINT HipCenterRight
		{
			OFFSET 1.028509 -6.352623 -5.496335
			CHANNELS 3 Yrotation Zrotation Xrotation
			JOINT RightHip
			{
				OFFSET 8.641552 -8.291084 0.126696
				CHANNELS 3 Yrotation Zrotation Xrotation
				JOINT RightKnee
				{
					OFFSET 1.945812 -49.036755 9.188271
					CHANNELS 3 Yrotation Zrotation Xrotation
					JOINT RightAnkle
					{
						OFFSET -0.782783 -35.962685 1.777959
						CHANNELS 3 Yrotation Zrotation Xrotation
						JOINT RightFoot
						{
							OFFSET 2.597723 -5.698556 -5.949855
							CHANNELS 3 Yrotation Zrotation Xrotation
							End Site
							{
								OFFSET 0.000000 0.000000 0.000000
							}
						}
					}
				}
			}
		}
		JOINT HipCenterLeft
		{
			OFFSET 1.028509 -6.352623 -5.496335
			CHANNELS 3 Yrotation Zrotation Xrotation
			JOINT LeftHip
			{
				OFFSET -7.820205 -8.282742 -2.834868
				CHANNELS 3 Yrotation Zrotation Xrotation
				JOINT LeftKnee
				{
					OFFSET -4.238897 -47.915482 9.590077
					CHANNELS 3 Yrotation Zrotation Xrotation
					JOINT LeftAnkle
					{
						OFFSET 1.890875 -35.341911 2.754498
						CHANNELS 3 Yrotation Zrotation Xrotation
						JOINT LeftFoot
						{
							OFFSET -2.728528 -7.142753 -4.019785
							CHANNELS 3 Yrotation Zrotation Xrotation
							End Site
							{
								OFFSET 0.000000 0.000000 0.000000
							}
						}
					}
				}
			}
		}
	}
}
MOTION
Frames: 17
Frame Time: 0.033333
0.394140 0.194767 -0.085640 0.001657 -0.065759 0.052839 0.397182 2.586414 0.445501 0.0 0.0 0.0 0.324371 0.838061 0.136377 6.257570 44.133251 6.216064 -38.159374 59.009281 58.323853 -6.477853 26.513344 -14.552696 0.0 0.0 0.0 0.274304 0.360714 -0.278764 -0.391758 1.823653 0.754572 0.672794 -1.536772 -1.962127 0.753153 3.421660 2.241919 0.0 0.0 0.0 0.167288 -0.163105 0.159228 0.042536 0.409890 0.034769 -0.065088 -0.224805 -0.550202 -0.059133 -0.940195 0.933687 -3.923725 -0.149149 -9.667038 0.0 0.0 0.0 0.214173 0.666619 -0.467178 -0.032781 -0.086117 0.177317 -0.081685 -1.141696 0.114236 0.319747 0.005420 -0.848405 0.0 0.0 0.0 
0.413810 0.195712 -0.100660 0.002931 -0.074729 0.090292 0.432475 2.690819 0.171697 0.0 0.0 0.0 0.363813 0.840744 0.162127 6.304475 44.128319 5.444020 -35.743176 59.787411 51.878407 -7.660026 31.893021 -14.545812 0.0 0.0 0.0 0.304303 0.314464 -0.292769 -0.434263 1.960640 0.845955 0.757899 -1.748454 -2.166867 0.974558 3.874998 3.082245 0.0 0.0 0.0 0.190647 -0.184524 0.188205 -0.011154 0.411647 -0.016754 -0.061008 -0.195897 -0.585819 -0.056882 -0.879226 0.952633 -3.367153 -0.828596 -9.791980 0.0 0.0 0.0 0.175984 0.664657 -0.425978 -0.008750 -0.040339 0.007673 -0.077969 -1.157054 0.191201 0.384497 -0.055252 -0.930710 0.0 0.0 0.0 
0.423954 0.199017 -0.117040 0.002924 -0.077351 0.090218 0.451085 2.724744 -0.020826 0.0 0.0 0.0 0.385727 0.941443 0.167027 6.318251 43.940365 4.807824 -33.955513 60.036785 47.785664 -8.602761 31.639864 -10.233979 0.0 0.0 0.0 0.258111 0.340263 -0.262452 -0.410714 1.987909 0.773566 0.811785 -1.929324 -1.912975 0.905317 4.277679 2.731847 0.0 0.0 0.0 0.187456 -0.177977 0.203288 -0.053462 0.371399 -0.056742 -0.050725 -0.149026 -0.555319 -0.054939 -0.845699 0.913395 -2.294518 -1.497633 -8.626781 0.0 0.0 0.0 0.151442 0.660991 -0.398642 -0.000221 -0.019560 -0.041831 -0.082467 -1.220457 0.196392 0.203274 0.525480 -1.295013 0.0 0.0 0.0 
0.452501 0.200206 -0.136447 0.002778 -0.084054 0.086318 0.475838 2.795438 -0.211679 0.0 0.0 0.0 0.693093 0.730740 0.389882 6.444627 44.299694 3.588745 -33.206390 60.501106 45.241409 -8.219423 32.955032 -13.225720 0.0 0.0 0.0 0.264629 0.292526 -0.258232 -0.426479 2.016316 0.812127 0.805772 -1.910988 -1.926759 0.982984 4.032104 3.094593 0.0 0.0 0.0 0.273931 -0.275126 0.216363 -0.062101 0.436576 -0.065988 -0.048166 -0.128365 -0.589922 -0.062095 -0.918497 1.214825 -3.211869 -1.181896 -10.185714 0.0 0.0 0.0 0.125829 0.733776 -0.397540 0.006644 0.000340 -0.074323 -0.080015 -1.219529 0.233517 0.160798 0.706668 -1.442651 0.0 0.0 0.0 
0.446241 0.194192 -0.194407 0.000529 -0.037843 0.018177 0.433436 2.575767 -0.125216 0.0 0.0 0.0 0.660563 0.772704 0.364374 6.402556 43.954407 3.424181 -32.855724 60.454617 44.635193 -8.407368 35.140362 -14.485870 0.0 0.0 0.0 0.393008 0.180629 -0.334664 -0.500528 2.115276 1.000029 0.814796 -1.937268 -1.916542 1.061704 3.929431 3.436792 0.0 0.0 0.0 0.312693 -0.311230 0.260823 -0.131389 0.396756 -0.131858 -0.042805 -0.115460 -0.519453 -0.062159 -0.907953 1.249185 -3.310843 -0.691659 -9.344267 0.0 0.0 0.0 0.056299 0.725456 -0.320876 0.017795 0.005809 -0.187836 -0.075565 -1.243888 0.331351 0.166560 0.701089 -1.449737 0.0 0.0 0.0 
0.393842 0.157195 -0.319481 -0.007243 0.137234 -0.232176 0.350005 2.151018 0.080234 0.0 0.0 0.0 0.392381 0.933560 0.172160 6.297723 43.426022 3.892594 -32.896389 60.492714 44.633789 -8.726039 35.891670 -13.949480 0.0 0.0 0.0 0.628108 -0.066978 -0.466037 -0.645668 2.174935 1.395778 0.776962 -1.845429 -1.806033 0.982240 3.434916 3.176183 0.0 0.0 0.0 0.367531 -0.347127 0.401746 -0.182350 0.250410 -0.178598 -0.033748 -0.101519 -0.362543 -0.062576 -0.939907 1.188916 -2.720394 -0.790114 -8.102339 0.0 0.0 0.0 -0.033333 0.632225 -0.192554 0.009561 -0.056795 -0.237847 -0.073659 -1.206263 0.317057 0.126959 0.548703 -1.128994 0.0 0.0 0.0 
0.397884 0.153947 -0.325775 -0.006842 0.154231 -0.222178 0.352213 2.082590 -0.136110 0.0 0.0 0.0 0.462533 0.893750 0.222177 6.285802 43.274281 3.696779 -33.756969 60.641914 46.031670 -9.223547 35.909649 -12.155124 0.0 0.0 0.0 0.581722 -0.053141 -0.433330 -0.645594 2.004903 1.433686 0.700291 -1.600017 -2.066720 1.057921 3.351604 3.496357 0.0 0.0 0.0 0.363813 -0.343835 0.396670 -0.175091 0.240067 -0.171484 -0.038785 -0.124329 -0.379405 -0.064093 -0.991803 1.149968 -4.168293 0.625286 -8.487988 0.0 0.0 0.0 -0.023672 0.624148 -0.199890 0.000412 -0.082712 -0.193360 -0.090000 -1.294983 0.167718 -0.313159 1.328363 -1.095965 0.0 0.0 0.0 
0.419248 0.150669 -0.337505 -0.006322 0.173207 -0.208657 0.348539 2.001329 -0.296051 0.0 0.0 0.0 0.550909 0.961991 0.273906 6.175318 42.508675 3.663236 -36.855804 60.148220 53.157520 -9.922702 37.829155 -11.448856 0.0 0.0 0.0 0.616510 -0.132912 -0.444314 -0.697203 2.099129 1.557987 0.728025 -1.656876 -2.230237 1.013313 2.836778 3.381992 0.0 0.0 0.0 0.397007 -0.376857 0.423088 -0.241749 0.253513 -0.235619 -0.047852 -0.182876 -0.328593 -0.059108 -0.892157 1.074080 -4.872663 0.843367 -9.822302 0.0 0.0 0.0 -0.050487 0.645699 -0.179217 0.008503 -0.077865 -0.274335 -0.090388 -1.401803 0.285931 -1.026031 2.544973 -0.971817 0.0 0.0 0.0 
0.441695 0.144967 -0.343513 -0.005089 0.180166 -0.171369 0.348294 1.840393 -0.741002 0.0 0.0 0.0 0.570561 1.001282 0.283089 6.008201 41.576504 4.701398 -41.074505 59.289379 62.857933 -10.739651 36.590107 -7.449133 0.0 0.0 0.0 0.534015 -0.110634 -0.385720 -0.677689 2.000301 1.525377 0.729919 -1.638154 -2.420017 0.973091 2.752192 3.232054 0.0 0.0 0.0 0.368540 -0.342332 0.432574 -0.276676 0.212597 -0.268528 -0.047150 -0.179256 -0.328267 -0.057955 -0.989033 0.690061 -3.962700 1.083014 -6.856293 0.0 0.0 0.0 -0.068781 0.611095 -0.147447 0.015357 -0.086307 -0.371898 -0.095305 -1.464064 0.282508 -0.851586 3.032975 -2.052523 0.0 0.0 0.0 
0.491599 0.141677 -0.348949 -0.003808 0.120391 -0.125099 0.380400 1.940984 -0.984168 0.0 0.0 0.0 0.614942 1.114308 0.301457 5.911842 41.044601 5.779761 -43.443348 58.430077 69.010902 -10.493635 34.828949 -6.387520 0.0 0.0 0.0 0.528581 -0.162005 -0.371560 -0.676572 2.088633 1.502211 0.730556 -1.635205 -2.457290 0.874415 2.514087 2.872144 0.0 0.0 0.0 0.363718 -0.333914 0.447504 -0.178752 0.267185 -0.175391 -0.061510 -0.210341 -0.531077 -0.063507 -1.077937 0.827126 -4.171627 1.394242 -6.634863 0.0 0.0 0.0 0.025007 0.621068 -0.250346 0.021634 -0.028399 -0.309529 -0.105862 -1.551326 0.223149 -0.816176 2.898464 -1.962972 0.0 0.0 0.0 
0.574479 0.157681 -0.352621 -0.002686 0.014377 -0.080716 0.436454 2.126462 -1.363759 0.0 0.0 0.0 0.645714 1.245222 0.309084 5.804089 40.852409 9.573334 -43.462383 54.509735 79.487717 -9.848049 37.241695 -11.172360 0.0 0.0 0.0 0.572678 -0.241300 -0.389709 -0.701308 2.303705 1.523258 0.742028 -1.659590 -2.520283 0.874729 2.319162 2.901222 0.0 0.0 0.0 0.365170 -0.329662 0.478188 -0.185001 0.298470 -0.181843 -0.052527 -0.143132 -0.626831 -0.065744 -1.123410 0.853584 -4.391126 1.712561 -6.416953 0.0 0.0 0.0 0.094619 0.704287 -0.353909 0.019125 -0.025180 -0.273719 -0.102971 -1.498979 0.206918 -0.585130 2.523317 -2.040202 0.0 0.0 0.0 
0.687628 0.126049 -0.423002 -0.006966 -0.108513 -0.192662 0.503007 2.588876 -1.134145 0.0 0.0 0.0 0.506071 1.421344 0.200367 5.754033 41.212780 12.460982 -42.361122 52.161804 84.483246 -8.347446 29.782133 -9.133448 0.0 0.0 0.0 0.708216 -0.296948 -0.482171 -0.787740 2.335597 1.758395 0.713735 -1.550760 -2.742692 1.127439 1.470730 3.987909 0.0 0.0 0.0 0.368504 -0.320960 0.543174 -0.214601 0.339274 -0.210829 -0.041711 -0.101623 -0.557897 -0.062364 -1.066985 0.772401 -4.798197 2.122977 -6.455828 0.0 0.0 0.0 0.090706 0.751916 -0.366798 0.036347 0.085322 -0.215878 -0.121880 -1.709130 0.164085 -0.668193 2.678937 -2.039979 0.0 0.0 0.0 
0.788447 0.112846 -0.452256 -0.008513 -0.219028 -0.223222 0.563306 2.991827 -0.988834 0.0 0.0 0.0 0.410284 1.578515 0.122448 5.655192 41.596222 16.156170 -36.862961 48.039104 88.296806 -9.326182 28.450964 -2.589226 0.0 0.0 0.0 0.778448 -0.341908 -0.526907 -0.846504 2.473624 1.890978 0.707048 -1.520844 -2.825655 1.060618 1.845968 3.689027 0.0 0.0 0.0 0.368785 -0.316993 0.565445 -0.262774 0.385535 -0.257708 -0.026404 -0.037287 -0.484853 -0.064775 -1.125799 0.763920 -5.255020 2.464215 -6.807806 0.0 0.0 0.0 0.058707 0.856077 -0.370095 0.029331 0.051838 -0.213068 -0.118261 -1.641292 0.141037 -0.403984 2.021015 -1.819449 0.0 0.0 0.0 
0.830714 0.116321 -0.433755 -0.005951 -0.179073 -0.155770 0.477150 2.484890 -1.018145 0.0 0.0 0.0 0.480916 1.606738 0.166051 5.584409 40.648563 19.813250 -30.627871 44.057186 91.225723 -10.394341 27.228256 4.820996 0.0 0.0 0.0 0.750031 -0.324119 -0.508729 -0.845821 2.416049 1.902436 0.737059 -1.589129 -2.958781 1.002854 1.544253 3.501000 0.0 0.0 0.0 0.369496 -0.316674 0.571334 -0.245349 0.384526 -0.240981 -0.050986 -0.142173 -0.593808 -0.062142 -1.046341 0.824729 -4.652338 1.751124 -7.008463 0.0 0.0 0.0 0.088237 0.850910 -0.399545 0.010070 -0.048811 -0.225293 -0.126076 -1.594431 -0.028058 -0.231860 1.187977 -1.107477 0.0 0.0 0.0 
0.896199 0.111359 -0.443077 -0.002785 -0.145088 -0.069266 0.433043 2.183989 -1.148830 0.0 0.0 0.0 0.669178 1.349309 0.314447 5.699162 37.939816 19.491289 -25.186033 40.180836 97.187004 -9.510866 29.289755 -3.053753 0.0 0.0 0.0 0.778337 -0.361847 -0.522904 -0.826561 2.308867 1.873420 0.701173 -1.481522 -2.995854 0.968960 1.439587 3.383474 0.0 0.0 0.0 0.427872 -0.381658 0.581064 -0.304342 0.390881 -0.297654 -0.061898 -0.177684 -0.692144 -0.058858 -0.975447 0.802845 -8.080187 4.449738 -9.596893 0.0 0.0 0.0 0.044109 0.879140 -0.362856 0.020343 -0.086010 -0.427984 -0.122368 -1.616062 0.051734 -0.145134 1.109642 -1.220229 0.0 0.0 0.0 
0.941376 0.066358 -0.426221 0.002147 -0.084572 0.068075 0.423125 2.023996 -1.441711 0.0 0.0 0.0 0.853306 0.946569 0.474715 5.723269 37.276745 19.391346 -19.159567 37.092247 99.084946 -8.993433 25.828728 0.426192 0.0 0.0 0.0 0.654663 -0.112019 -0.477511 -0.647083 1.952237 1.449769 0.730430 -1.600518 -2.724999 1.284353 1.020556 4.627903 0.0 0.0 0.0 0.404148 -0.373674 0.481859 -0.218663 0.406911 -0.215713 -0.096947 -0.309071 -0.917887 -0.060517 -0.978636 0.918330 -5.125901 2.229296 -7.063615 0.0 0.0 0.0 0.151260 0.609794 -0.380105 0.043781 0.006199 -0.480161 -0.115554 -1.538172 0.063474 -0.128266 1.046735 -1.175112 0.0 0.0 0.0 
1.008870 0.056523 -0.399446 0.006552 -0.100760 0.195835 0.417466 1.929760 -1.623579 0.0 0.0 0.0 1.362733 -0.008141 0.905495 5.691305 38.115387 19.380226 -9.329778 32.442242 99.770676 -10.106744 31.283030 -3.382908 0.0 0.0 0.0 0.654847 -0.120217 -0.476049 -0.612880 2.090090 1.322314 0.800841 -1.809982 -2.649035 1.380093 0.552875 5.023181 0.0 0.0 0.0 0.503690 -0.499865 0.420770 -0.243410 0.504805 -0.240877 -0.095951 -0.285553 -1.002925 -0.063559 -1.059941 0.892096 -4.373866 2.425577 -4.558824 0.0 0.0 0.0 0.119061 0.656220 -0.362606 0.067695 0.085911 -0.565338 -0.120594 -1.556623 0.009630 -0.188035 1.040564 -1.012555 0.0 0.0 0.0 
